<svg xmlns="http://www.w3.org/2000/svg" width="980" height="520" viewBox="0 0 980 520">
<style>text{font-family:Arial,Helvetica,sans-serif;fill:#233} .small{font-size:12px}.label{font-size:13px}.title{font-size:20px;font-weight:700}.axis{stroke:#789;stroke-width:1}.grid{stroke:#d8e0e5;stroke-width:1}.note{font-size:11px;fill:#566}</style>
<rect width="980" height="520" fill="#ffffff"/>
<text x="490.0" y="30" text-anchor="middle" class="title">Comparacion de metricas en conjunto de prueba</text>
<line x1="80" y1="405.0" x2="950" y2="405.0" class="grid"/>
<text x="68" y="409.0" text-anchor="end" class="small">0.0</text>
<line x1="80" y1="338.0" x2="950" y2="338.0" class="grid"/>
<text x="68" y="342.0" text-anchor="end" class="small">0.2</text>
<line x1="80" y1="271.0" x2="950" y2="271.0" class="grid"/>
<text x="68" y="275.0" text-anchor="end" class="small">0.4</text>
<line x1="80" y1="204.0" x2="950" y2="204.0" class="grid"/>
<text x="68" y="208.0" text-anchor="end" class="small">0.6</text>
<line x1="80" y1="137.0" x2="950" y2="137.0" class="grid"/>
<text x="68" y="141.0" text-anchor="end" class="small">0.8</text>
<line x1="80" y1="70.0" x2="950" y2="70.0" class="grid"/>
<text x="68" y="74.0" text-anchor="end" class="small">1.0</text>
<line x1="80" y1="70" x2="80" y2="405" class="axis"/>
<line x1="80" y1="405" x2="950" y2="405" class="axis"/>
<rect x="111.3" y="98.3" width="27.8" height="306.7" fill="#2f6f73"/>
<rect x="139.2" y="82.0" width="27.8" height="323.0" fill="#b85c38"/>
<rect x="167.0" y="115.8" width="27.8" height="289.2" fill="#4f6fa8"/>
<rect x="194.8" y="99.9" width="27.8" height="305.1" fill="#7a6a41"/>
<text x="208.8" y="94.9" text-anchor="middle" class="note">0.911</text>
<text x="167.0" y="427" text-anchor="middle" class="label">Hibrido RF</text>
<rect x="285.3" y="102.7" width="27.8" height="302.3" fill="#2f6f73"/>
<rect x="313.2" y="83.8" width="27.8" height="321.2" fill="#b85c38"/>
<rect x="341.0" y="123.2" width="27.8" height="281.8" fill="#4f6fa8"/>
<rect x="368.8" y="104.8" width="27.8" height="300.2" fill="#7a6a41"/>
<text x="382.8" y="99.8" text-anchor="middle" class="note">0.896</text>
<text x="341.0" y="427" text-anchor="middle" class="label">CodeBERT RF</text>
<rect x="459.3" y="111.8" width="27.8" height="293.2" fill="#2f6f73"/>
<rect x="487.2" y="125.3" width="27.8" height="279.7" fill="#b85c38"/>
<rect x="515.0" y="91.6" width="27.8" height="313.4" fill="#4f6fa8"/>
<rect x="542.8" y="109.4" width="27.8" height="295.6" fill="#7a6a41"/>
<text x="556.8" y="104.4" text-anchor="middle" class="note">0.882</text>
<text x="515.0" y="427" text-anchor="middle" class="label">TF-IDF SVM</text>
<rect x="633.3" y="110.4" width="27.8" height="294.6" fill="#2f6f73"/>
<rect x="661.2" y="110.4" width="27.8" height="294.6" fill="#b85c38"/>
<rect x="689.0" y="110.4" width="27.8" height="294.6" fill="#4f6fa8"/>
<rect x="716.8" y="110.4" width="27.8" height="294.6" fill="#7a6a41"/>
<text x="730.8" y="105.4" text-anchor="middle" class="note">0.879</text>
<text x="689.0" y="427" text-anchor="middle" class="label">MLP emb.</text>
<rect x="807.3" y="208.5" width="27.8" height="196.5" fill="#2f6f73"/>
<rect x="835.2" y="221.4" width="27.8" height="183.6" fill="#b85c38"/>
<rect x="863.0" y="75.4" width="27.8" height="329.6" fill="#4f6fa8"/>
<rect x="890.8" y="169.1" width="27.8" height="235.9" fill="#7a6a41"/>
<text x="904.8" y="164.1" text-anchor="middle" class="note">0.704</text>
<text x="863.0" y="427" text-anchor="middle" class="label">TF-IDF MLP</text>
<rect x="160" y="475" width="14" height="14" fill="#2f6f73"/><text x="180" y="487" class="label">Accuracy</text>
<rect x="320" y="475" width="14" height="14" fill="#b85c38"/><text x="340" y="487" class="label">Precision</text>
<rect x="480" y="475" width="14" height="14" fill="#4f6fa8"/><text x="500" y="487" class="label">Recall</text>
<rect x="640" y="475" width="14" height="14" fill="#7a6a41"/><text x="660" y="487" class="label">F1</text>
</svg>